<?xml version="1.0" encoding="UTF-8" standalone="no"?>
<!-- Created with Inkscape (http://www.inkscape.org/) -->

<svg
   xmlns:dc="http://purl.org/dc/elements/1.1/"
   xmlns:cc="http://creativecommons.org/ns#"
   xmlns:rdf="http://www.w3.org/1999/02/22-rdf-syntax-ns#"
   xmlns:svg="http://www.w3.org/2000/svg"
   xmlns="http://www.w3.org/2000/svg"
   xmlns:xlink="http://www.w3.org/1999/xlink"
   xmlns:sodipodi="http://sodipodi.sourceforge.net/DTD/sodipodi-0.dtd"
   xmlns:inkscape="http://www.inkscape.org/namespaces/inkscape"
   width="800.9209"
   height="600.25"
   viewBox="0 0 800.92087 600.24999"
   id="svg2"
   version="1.1"
   inkscape:version="0.91 r13725"
   sodipodi:docname="_nxt-python-orig.svg">
  <defs
     id="defs4">
    <linearGradient
       inkscape:collect="always"
       xlink:href="#linearGradient4671"
       id="linearGradient1475"
       gradientUnits="userSpaceOnUse"
       gradientTransform="matrix(0.562541,0,0,0.567972,342.28539,378.75107)"
       x1="150.96111"
       y1="192.35176"
       x2="112.03144"
       y2="137.27299" />
    <linearGradient
       id="linearGradient4671">
      <stop
         style="stop-color:#ffd43b;stop-opacity:1;"
         offset="0"
         id="stop4673" />
      <stop
         style="stop-color:#ffe873;stop-opacity:1"
         offset="1"
         id="stop4675" />
    </linearGradient>
    <linearGradient
       inkscape:collect="always"
       xlink:href="#linearGradient4689"
       id="linearGradient1478"
       gradientUnits="userSpaceOnUse"
       gradientTransform="matrix(0.562541,0,0,0.567972,342.28539,378.75107)"
       x1="26.648937"
       y1="20.603781"
       x2="135.66525"
       y2="114.39767" />
    <linearGradient
       id="linearGradient4689">
      <stop
         style="stop-color:#5a9fd4;stop-opacity:1;"
         offset="0"
         id="stop4691" />
      <stop
         style="stop-color:#306998;stop-opacity:1;"
         offset="1"
         id="stop4693" />
    </linearGradient>
  </defs>
  <sodipodi:namedview
     id="base"
     pagecolor="#ffffff"
     bordercolor="#666666"
     borderopacity="1.0"
     inkscape:pageopacity="0.0"
     inkscape:pageshadow="2"
     inkscape:zoom="0.96"
     inkscape:cx="351.42523"
     inkscape:cy="264.4406"
     inkscape:document-units="px"
     inkscape:current-layer="layer1"
     showgrid="false"
     units="px"
     inkscape:window-width="1853"
     inkscape:window-height="1005"
     inkscape:window-x="67"
     inkscape:window-y="29"
     inkscape:window-maximized="1"
     fit-margin-top="0"
     fit-margin-left="0"
     fit-margin-right="0"
     fit-margin-bottom="0" />
  <metadata
     id="metadata7">
    <rdf:RDF>
      <cc:Work
         rdf:about="">
        <dc:format>image/svg+xml</dc:format>
        <dc:type
           rdf:resource="http://purl.org/dc/dcmitype/StillImage" />
        <dc:title></dc:title>
      </cc:Work>
    </rdf:RDF>
  </metadata>
  <g
     inkscape:label="Layer 1"
     inkscape:groupmode="layer"
     id="layer1"
     transform="translate(-2981.7502,538.5962)">
    <g
       id="g4222"
       transform="matrix(4.7420099,0,0,4.7420099,-12321.067,1234.538)">
      <rect
         ry="2.1088104"
         rx="2.1088104"
         y="-363.32361"
         x="3269.2502"
         height="84.352417"
         width="84.352417"
         id="rect4159"
         style="fill:#ffa500;fill-opacity:1;stroke:none;stroke-opacity:1" />
      <path
         sodipodi:nodetypes="ssssssssccssssssssccs"
         inkscape:connector-curvature="0"
         d="m 3344.7456,-287.40643 c 0.2337,0 0.4217,-0.18813 0.4217,-0.42173 l 0,-66.63845 c 0,-0.23365 -0.188,-0.42176 -0.4217,-0.42176 l -66.6384,0 c -0.2336,0 -0.4217,0.18811 -0.4217,0.42176 l 0,66.63845 c 0,0.2336 0.1881,0.42173 0.4217,0.42173 l 29.0595,0 0,-12.65293 -16.4067,0 c -0.2336,0 -0.4217,-0.188 -0.4217,-0.42173 l 0,-41.33266 c 0,-0.2336 0.1881,-0.42174 0.4217,-0.42174 l 41.3328,0 c 0.2336,0 0.4217,0.18814 0.4217,0.42174 l 0,41.33266 c 0,0.23373 -0.1881,0.42173 -0.4217,0.42173 l -16.4909,0 0,12.65293 z"
         style="fill:#ffffff;fill-opacity:1;stroke:#808080;stroke-width:0.42176208;stroke-miterlimit:4;stroke-dasharray:none;stroke-opacity:1"
         id="rect4157" />
      <rect
         ry="0.42176208"
         rx="0.42176208"
         y="-333.5799"
         x="3298.9097"
         height="24.949306"
         width="24.949306"
         id="rect4230"
         style="fill:#ffffff;fill-opacity:1;stroke:#808080;stroke-width:0.42176208;stroke-miterlimit:4;stroke-dasharray:none;stroke-opacity:1" />
      <g
         transform="matrix(0.18970712,0,0,0.18970712,3233.0623,-405.95397)"
         id="g4226">
        <path
           inkscape:connector-curvature="0"
           style="fill:url(#linearGradient1478);fill-opacity:1"
           d="m 412.19529,390.45436 c -4.5837,0.0213 -8.961,0.41222 -12.8125,1.09375 -11.3463,2.00451 -13.4063,6.20011 -13.4063,13.9375 l 0,10.21875 26.8125,0 0,3.40625 -26.8125,0 -10.0625,0 c -7.7924,0 -14.6157,4.68372 -16.75,13.59375 -2.4618,10.21297 -2.571,16.58603 0,27.25001 1.9059,7.93785 6.4576,13.59375 14.25,13.59375 l 9.2188,0 0,-12.25 c 0,-8.8499 7.6571,-16.65625 16.75,-16.65625 l 26.7812,0 c 7.455,0 13.4063,-6.13817 13.4063,-13.62501 l 0,-25.53125 c 0,-7.26633 -6.13,-12.72477 -13.4063,-13.9375 -4.606,-0.76672 -9.3851,-1.11504 -13.9687,-1.09375 z m -14.5,8.21875 c 2.7695,0 5.0312,2.29865 5.0312,5.125 0,2.81634 -2.2617,5.09375 -5.0312,5.09375 -2.7795,0 -5.0313,-2.27741 -5.0313,-5.09375 0,-2.82635 2.2518,-5.125 5.0313,-5.125 z"
           id="path1948" />
        <path
           inkscape:connector-curvature="0"
           style="fill:url(#linearGradient1475);fill-opacity:1"
           d="m 442.91399,419.11061 0,11.90625 c 0,9.23076 -7.8259,17.00001 -16.75,17.00001 l -26.7812,0 c -7.3359,0 -13.4063,6.27848 -13.4063,13.625 l 0,25.53125 c 0,7.26634 6.3186,11.54032 13.4063,13.625 8.4873,2.49561 16.6262,2.94663 26.7812,0 6.7502,-1.95439 13.4063,-5.88761 13.4063,-13.625 l 0,-10.21875 -26.7813,0 0,-3.40625 26.7813,0 13.4062,0 c 7.7925,0 10.6963,-5.43541 13.4063,-13.59375 2.7993,-8.39889 2.6802,-16.47578 0,-27.25001 -1.9258,-7.75744 -5.6039,-13.59375 -13.4063,-13.59375 l -10.0625,0 z m -15.0625,64.65626 c 2.7795,0 5.0313,2.27742 5.0313,5.09375 0,2.82635 -2.2518,5.125 -5.0313,5.125 -2.7695,0 -5.0312,-2.29865 -5.0312,-5.125 0,-2.81633 2.2617,-5.09375 5.0312,-5.09375 z"
           id="path1950" />
      </g>
    </g>
    <g
       style="font-style:normal;font-weight:normal;font-size:253.8973999px;line-height:125%;font-family:sans-serif;letter-spacing:0px;word-spacing:0px;fill:#000000;fill-opacity:1;stroke:none;stroke-width:1px;stroke-linecap:butt;stroke-linejoin:miter;stroke-opacity:1"
       id="text3347"
       transform="matrix(0.09656566,0,0,0.09656566,2865.8714,-30.311688)">
      <path
         d="m 2000,952.36224 -114.3654,0 0,-685.63457 -571.2692,0 0,685.63457 -114.3654,0 0,-799.99998 800,0 0,799.99998 z"
         style="font-style:normal;font-variant:normal;font-weight:normal;font-stretch:normal;font-size:1142.53833008px;font-family:'SF Square Head';-inkscape-font-specification:'SF Square Head'"
         id="path4180"
         inkscape:connector-curvature="0" />
      <path
         d="m 2856.9037,952.36224 -148.9539,0 -251.0461,-308.50766 -251.6039,308.50766 -148.3961,0 325.802,-399.99999 -325.802,-399.99999 148.3961,0 251.6039,308.50766 251.0461,-308.50766 148.9539,0 -325.8019,399.99999 325.8019,399.99999 z"
         style="font-style:normal;font-variant:normal;font-weight:normal;font-stretch:normal;font-size:1142.53833008px;font-family:'SF Square Head';-inkscape-font-specification:'SF Square Head'"
         id="path4182"
         inkscape:connector-curvature="0" />
      <path
         d="m 3713.8075,266.72767 -343.0962,0 0,685.63457 -114.3655,0 0,-685.63457 -342.5383,0 0,-114.36541 800,0 0,114.36541 z"
         style="font-style:normal;font-variant:normal;font-weight:normal;font-stretch:normal;font-size:1142.53833008px;font-family:'SF Square Head';-inkscape-font-specification:'SF Square Head'"
         id="path4184"
         inkscape:connector-curvature="0" />
      <path
         d="m 4341.9803,609.8239 -571.2691,0 0,-114.36541 571.2691,0 0,114.36541 z"
         style="font-style:normal;font-variant:normal;font-weight:normal;font-stretch:normal;font-size:1142.53833008px;font-family:'SF Square Head';-inkscape-font-specification:'SF Square Head'"
         id="path4186"
         inkscape:connector-curvature="0" />
      <path
         d="m 5085.6346,495.45849 0,-228.73082 -571.2692,0 0,228.73082 571.2692,0 z M 5200,609.8239 l -685.6346,0 0,342.53834 -114.3654,0 0,-799.99998 800,0 0,457.46164 z"
         style="font-style:normal;font-variant:normal;font-weight:normal;font-stretch:normal;font-size:1142.53833008px;font-family:'SF Square Head';-inkscape-font-specification:'SF Square Head'"
         id="path4188"
         inkscape:connector-curvature="0" />
      <path
         d="m 6056.9038,952.36224 -800,0 0,-114.36541 685.6346,0 0,-228.17293 -685.6346,0 0,-457.46164 114.3654,0 0,343.09623 571.2692,0 0,-343.09623 114.3654,0 0,799.99998 z"
         style="font-style:normal;font-variant:normal;font-weight:normal;font-stretch:normal;font-size:1142.53833008px;font-family:'SF Square Head';-inkscape-font-specification:'SF Square Head'"
         id="path4190"
         inkscape:connector-curvature="0" />
      <path
         d="m 6913.8076,266.72767 -343.0962,0 0,685.63457 -114.3654,0 0,-685.63457 -342.5384,0 0,-114.36541 800,0 0,114.36541 z"
         style="font-style:normal;font-variant:normal;font-weight:normal;font-stretch:normal;font-size:1142.53833008px;font-family:'SF Square Head';-inkscape-font-specification:'SF Square Head'"
         id="path4192"
         inkscape:connector-curvature="0" />
      <path
         d="m 7770.7109,952.36224 -114.3654,0 0,-342.53834 -571.2692,0 0,342.53834 -114.3654,0 0,-799.99998 114.3654,0 0,343.09623 571.2692,0 0,-343.09623 114.3654,0 0,799.99998 z"
         style="font-style:normal;font-variant:normal;font-weight:normal;font-stretch:normal;font-size:1142.53833008px;font-family:'SF Square Head';-inkscape-font-specification:'SF Square Head'"
         id="path4194"
         inkscape:connector-curvature="0" />
      <path
         d="m 8513.2493,837.99683 0,-571.26916 -571.2691,0 0,571.26916 571.2691,0 z m 114.3654,114.36541 -800,0 0,-799.99998 800,0 0,799.99998 z"
         style="font-style:normal;font-variant:normal;font-weight:normal;font-stretch:normal;font-size:1142.53833008px;font-family:'SF Square Head';-inkscape-font-specification:'SF Square Head'"
         id="path4196"
         inkscape:connector-curvature="0" />
      <path
         d="m 9484.5185,952.36224 -114.3654,0 0,-685.63457 -571.2691,0 0,685.63457 -114.3654,0 0,-799.99998 799.9999,0 0,799.99998 z"
         style="font-style:normal;font-variant:normal;font-weight:normal;font-stretch:normal;font-size:1142.53833008px;font-family:'SF Square Head';-inkscape-font-specification:'SF Square Head'"
         id="path4198"
         inkscape:connector-curvature="0" />
    </g>
  </g>
</svg>
