<?xml version="1.0" encoding="UTF-8" standalone="no"?>
<svg xmlns:rdf="http://www.w3.org/1999/02/22-rdf-syntax-ns#" xmlns="http://www.w3.org/2000/svg" height="600" width="800" version="1.1" xmlns:cc="http://creativecommons.org/ns#" xmlns:dc="http://purl.org/dc/elements/1.1/">
<g transform="translate(62.3)">
<g transform="matrix(.320 0 0 .320 34 -16)">
<path d="m1.51e3 50-2.4 2.5-4.39 4.59-9.69 7.79-5.39 5.09-1.3 1.8-2.1 2.8-4.69 3-23.9 21.9-25.6 23.6-2.2 2.3-1.4 2.3-0.699 0.499-3.8 3-4.89 5.09-2.7 2.1-1.9 2.6-16.4 16-0.599 0.599-1.7 1.6-4.59 5.19-6.99 6.29-2.6 3.8-5.09 4-3.5 4.49-2.5 1.5-1.6 1.6-11.1 11.2-2.4 3.1-2.7 2.3-3.3 2.8-14-1.2-25.9-2.2-5.09 0.2-1.7-0.599-4.29-0.299-4.2-0.799-0.799-0.2-9.49 0.4-6.29-0.899-19.8-1.6-4.79-0.899-3.8 0.2-8.19-0.5-1.1-0.1-6.79-4.39-16.4-12-22.6-16.6-4.39-3.9-1.3-0.499-0.899 0.2-4.59 2.7-32 19.4-3.7 1.6-4 1.6-34.5 8.79-1.5 0.499-3.5 0.999-1.9 0.999-9.99 2.1-5.19 1.8-3 0.499-4.39 0.1-7.39 0.101-5.19 0.499-5.99 0.499-3.1-0.4-8.99 0.3-23.3 1.5-6.59 0.5-9.49-0.2-3.2 0.599-19.3 1.1-2.4 1.3-35.8 21-30.8 18-2.4 1.8 0.2 0.899 1.6 1.2 1.3 1.2 1.1 3.7 0.599 2.7-0.299 3.2 1.6 7.19-1.9 9.59-1.2 0.499 0.101 3.2-0.699 0.999-3.1-0.4-0.499-0.1-11.4-1.8-6.29-0.2-1.9-0.4-0.799-0.799-4.1-0.799-3.5 0.101-5.09-1.7-0.499-0.2-0.5-3.5-1.4-3.2 0.101-2.3-0.799-1.7-2-2.1-7.49-5.19-4.99-1.1-3.7 1.2-1.9 0.1-2.7 0.999-3.1-0.999-8.99-0.499-3.9 0.399h-0.899l-0.599-0.699-1.6-3.9-3.5-24.1-2-5.69-1.5-2.8-1.8-2.4-12.1-15.3-1.7-1.9-1.8-1.1-4.69-5.89-7.19-6.79-0.599-0.599-2.5-6.09-1.3-0.899-2.8-0.799h-5.49l-1.4 0.3-1.2 0.999-0.899 1.4-0.1 1.4 1.5 1.9 0.2 2.1-2.4 2.4-4.89 3.2-2.7 3.3-6.59 6.29-5.69 2.4-2.1 2-0.699 3.5-1.7 2.5-4.29 3.7-1.5 0.599-4.2 0.699-1.6-0.4-4.89 0.4-7.79 2.6-0.5 0.1-3.6 0.699-4.39 2.4-6.89 2.4-0.499 0.101-3.1 0.599-3.4 1.9-4.69 3.9-6.29 3.8-18.8-9.59-2.2-1.1-13-7.39-5.39-3.7-2.6-0.999-12.8-7.39-21.4-12.2-7.69-3.1-0.499-0.2h-8.09l-27.8-0.2-0.999 0.1-1.5 1.1-2 0.4-7.49 4.69-6.29 4.2-3.9 3.5-2.4 3.9-0.899 0.299-1.2-0.799-6.59-0.799-1.8 0.299-1.3 0.799-0.899 1.6-0.499 3-3.8 4.59-0.899 0.499-6.29 3.3-4.99 1.5-3.7-0.599-4.09-1.9-2.1 0.2-5.99 7.49-4.39 4-0.799 1.6-1.9 9.09-1.4 2.7-1.1 1.1-1.5 1.5-0.5 1.6-2.5 4.39-1.7 0.599-1.3 1.1-1.5 4.69-5.09 7.59-1.9 4.19-3.1 1.4-7.09 18 2.9 1.9 1.7-0.3 2.1-0.999 7.39-5.69 4.1-0.899 1.7 0.2 2.9 1.9 1.9 0.599 1.6 4.69 0.2 8.39 0.499 18.2-6.29 7.69-1.8 3.8-5.69 7.29-0.999 1.3-1.3 3.5 0.1 4.39-0.599 1.9-7.99 8.69-5.79 3.4-2.2 2.2h1.19e3l-0.4-1.8-1.7-7.19-4.19-12.5-4.49-7.99-3.9-8.99-0.098-2.1-0.399-4.89 0.799-2.8 4.59-7.49v-1.9l-0.699-2.9-6.09-11.1 0.3-0.799 3.1-1.2 3.3 0.1 4.29-2.5 4-3.2 0.999-1.8 1.4-2.3 1.4-9.39 0.799-17.3 0.099-2.7 1.6-14.2v-5.99l-1.3-2.1-3.2-1.4-10.9-3.4h-2l-0.799-1.4-2.3-1.9-3.5-7.29-1.8-2.1-2.3-1.7-7.69-1.7-3.8 0.999-2.5 0.101-1.8 0.899-1.6 1.4-1.8 2.4-0.3 1.1-2.7 7.69-1.4 0.799-1.2-8.49-10.8-10.1-3-6.09-0.599-1.6-1.2-3.5-2.6-0.499-5.19 2.2-1.1-0.1-1.2-1.5-1.4 0.1-6.89 2.5-2.8 0.5-4.29 2.1-0.899-0.699-0.799-1.5v-1.4l5.09-2.9 0.4-0.2 0.899-1.6-0.198-1.5-1.1-0.999-8.59-0.799-1.1-0.499 0.099-1.1 3-4.39 2.4-2.1 2.2-0.899 9.89-0.4 3.6-1.8 0.198-0.4 0.899-1.7 0.099-3.5-1.5-5.49-1.2-2.4-1.3-1.5-3.5-0.499-4.89-0.1-2.2 0.599-5.29 2.8-1.7 0.499-7.29-0.899-3.9-0.499-10.9 0.3-0.198-2.9 0.799-1.4 6.29-2.8 2.2-1.5 1.4-3.8 1.8-8.49 0.4-1.8-0.099-3.8-11.3-7.89-5.39-6.19-6.59-4-0.499-3.9 1.3-1.8 0.3-0.4 7.99-3.3 1.4-2.3 0.4-1.6-0.3-2.2-1.2-3.3-2.2-3.6-2.3-4-0.999-1.2-4.89-3.8-1.1-1.8 0.4-3.1 0.198-0.599 2.5-8.39-0.099-1.7-5.59-9.59-1.3-1.2-6.39-3.5-8.69-6.59zm-1.12e3 938-4.49 4.79-13.2 16.6-5.39 6.69-18.5 22.3-3.4 2.1-1.1 0.699-5.49 1.1-6.09 2.3h-1.1l-0.699-0.599-1.9-0.4-3.1 1.4-1.1 0.4-2.1 0.4-8.69-3.2-1.4 0.999-6.09 6.99-1.3 6.79-1.1 1.2-1.1 0.2-2-1.8-1.1-0.1-3.6 2.7-2.1 0.599-0.999 1.2-2.4 0.799-8.99 7.89-3.4 8.49-2.6 0.899-1.2 1.1-2.4 9.49-0.2 0.899 0.899 1.1-0.999 2.5-1.2 5.39-2.9 5.19 1.2 3.5-0.599 1.7-3.4 3.1-0.999 1.9-1.3 1.1-3.3 1.7-0.899 0.999-0.1 3.7-0.899 1.7-0.899 0.599-1.8 0.2h-1.3l-0.699 0.699 0.3 0.699-1.7 3.3-0.4 2 0.499 3-0.599 1.3-1.6 0.999-0.699 2.2-1.1 0.799-2.3 0.499-1.8 4.29-1.4 1.3-2.7-2.1-1.9-0.2-0.499-0.599-3.3-0.699-0.799 0.1-2 1.4-0.499-0.2-1.5-0.699h-1.4l-6.19 3.1-3.8 0.899-2.3 2-2.9 1.1-3.1 0.4-3.4 1.8-1.8 0.4-1.6 1.6-1.6 0.2-1.7 1.5-2 0.499-2.2 1.5h-0.4l-1.1-0.599-4 3-0.2 0.599-1.1 3.8-4.49 4.79-1.5 2.4-1.7 4.49v4l1.8 7.39 1.5 2.3 1.5 3-0.499 3.1-2.3 5.59 0.999 5.29-0.299 2.3-1.8 4-2.6 7.49-0.799 4.59 0.2 3.5 2.3 6.59 3.1 5.99 0.0997 1.7-0.0997 5.79 2.3 5.69 0.2 9.59-0.299 2.6-3.4 4.99-16.4 18.3-1.3 2.2-6.29 8.09h1.39e3l-2.4-5.09-0.999-5.29v-2.8l1.6-3.6v-0.1l2.4-2.1 6.29-2.6 0.799-1.3-0.599-2.3 1.2-9.49-2-2.6v-0.799l2.2-3.7 0.699-3.1 1.7-7.39 1.3-2.4 1.1-0.999 3.3-0.999 1.5-3.8 3.4-2.2 2.9-1.8 3.1-1.1 3.1-3.7 4.89-0.1 1.7-0.499 0.4-0.1 0.198-0.1 3.7-2 5.29-0.999 6.69-2.3 3-2.8 0.799-1.7 0.699-6.09 7.09-5.99 0.599-0.499 0.699-1.8 0.699-1.6 2.1-1.5 0.4-3.2-0.799-8.39 0.4-2.9 1.9-2.9 2-1.6 0.599-0.599 3-1.4 5.69-1.2 2.7-0.899 0.799-0.3 4.39-2.3 4.09-4.19 6.49-2.5 0.699-0.699 0.599-0.599 1.1-2.3-0.699-2.8 0.999-2.5 2.1-5.29 4.49-1.4 4.2-6.59 0.499-1.4 3.7-9.99 3.9-5.59 1.8-4.1-0.999-1.2-0.198-0.899 2.1-10.6 0.3-0.899 0.799-2.7 0.699-10.2 0.899-4.49 2.7-10.5 0.599-1.6 1.8-4.49 1.2-2.9 1.5-2.6 0.4-0.3 0.5-0.3 15.2 0.699 1.4-0.999 0.999-1.7 0.599-2.8 0.999-8.89 0.3-2.7 7.39-0.499 6.99-3.9 5.79-1.5 2.4-1.4 2.4-2.6 4.49-4.79 4.1-3.5 1.9-0.699 6.39-0.899 0.699 0.1 1.4 0.1 3.7-0.799 15.5-0.999 9.99-3.3 1.2-3.2 3.2-4.59 0.999-3.1 1.2-1.8 0.499-0.699 0.799-3.3-0.4-3.1 2.4-4.69-0.198-1.2-0.799-1.3-11.2-17.5 0.198-0.799h-1.38e3z"/>
<path d="m545 676 0.1 3v1.5l0.699 0.899 4.59 2.4 3.7 3.4 6.79 4.49 0.799 0.099 3.4-5.19 0.899-0.599 4.79 1.2 2.4-0.4 4.59-2.1 2.1-0.899 2.6-0.799 3.1-0.2 0.899 22.9 0.499 0.899 7.99 5.29 21.1 14 4.39 2.9 0.3 0.999-0.2 9.89v1.4l-18.3 30.5-1.6 3.4-0.599 0.599-1.6 1.4-3.3 6.09-22.3 23.7-3.4 3.6-22.6 28.8-11.6 14.8-3.9 5.89-2.9 3-8.99 7.09-8.39 6.69-6.79 4.99-17.4 13.9-14.7 11.8-3.1 1.9-8.59 7.79-2.2 0.799-4 3.1-32.7 25.6-0.499 0.4-13.7 16.2-12.2 15.5-6.09 7.59-2.7 2.9h1.38e3l0.3-1.3 1.2-2.1-0.499-0.699-3.8-6.19-0.399-0.599-4.2-6.59-0.4-2 1.7-0.699 3.9 0.699 0.599-2.8 6.49-2 4-0.499 2.2-1.3 1.1 0.0997 0.499 0.3 2.6 1.4 1.1 0.4 0.799-0.299 0.099-1.9-1.1-3.7 0.099-1.3 6.19-21.1 1.7-3.1 2.8-3 4.49-4.79 3.4 0.299 3.9-3.99 2.4-0.5 3.1-1.8 6.59-2.3 1.6-3 2.8-5.19 2-3 0.198-0.3 0.799-1.5 0.3-1.9 8.79-16.8 0.4-1.6 0.4-2 2.3-14.8 6.59-41.2 2.1-13.4 0.899-6.69-0.699-1.6-9.69-13.7-0.599-0.899-0.898-0.999-0.3-0.2-0.599-0.699-3.4-5.19-0.499-1.5-0.4-2.5-2.1-11.9v-3.9l-2.1-6.39-1.3-7.59-5.79-33.5-1.3-7.59-5.49-32.2h-1.27e3zm-462 939-1.1 3.6v2.2l0.5 0.599 1.9 0.4 2 2.5v0.999l-3.1 6.09-2.3 2.7-1.5 0.499-3.4 1.1 3.2 8.39-0.099 1.2v0.499l-3.3 5.59-0.499 4.49-1.5 2.2-0.599 2.1-0.5 0.499-1.1-0.2 0.099 3.2-1.2 1.1-0.4 3.8-1.3 1.2-0.599 1.5 0.4 2.3-0.4 2.5 1.2 3-0.599 1.2 0.5 1.9 0.3 1.2-0.699 5.29 0.899 4.1-1.1 2 0.4 2-1.1 2.1 2 2.5-0.4 1.3 2.7 5.89-0.4 3.6-3.6 5.89-0.998 2.4 1.4 4.59 1.5 7.99v1.6l-0.699 1.5-1.7 1.1-8.59-0.799h-2.4l-1.3 0.499v2.2l-0.198 4.89 2.1 10.6-2.9 7.79-1.3 5.59 0.599 5.39 0.599 6.29 0.599 5.79-0.099 10.6-1.4 7.29-1.6 3-0.998 3.7 0.699 3 1.7 3.8 0.198 3-0.099 0.299-2.7 7.99 0.099 1.8 1.1 3 5.89 5.19 2 2.7 0.3 4.89-0.799 4.59-1.9 4.49-0.099 2.4-0.201 2.7 0.4 1.7 0.899 1.3 0.799 5.29 2.2 4.39 0.4 2.3-0.099 2.2-3.6 13.6-0.099 7.19 0.599-0.2 1.1-0.599 3.7-0.3 12.5 0.599 6.19-0.499 3.4-2.2 8.59-9.39 0.799-0.4 3.3-1.9 2-0.599 4 0.1h5.39l2.9 1.8 4.19 4.99 0.6 0.1 0.099 0.1 2.3 0.4 1.2 0.3 1.5-0.3 1.1-0.699 1.9-6.09 1.8-2 1.6-1.8 2.7-6.09 0.799-0.999h2.1l0.099 0.1 9.69 14.4h0.499l2.7-0.1 0.499 0.2h0.299l2.6 1.7 0.799 1.7-0.0997 2.5-0.0997 3.6 2.2 8.29 0.299 5.19 3.2 7.39 3.9 6.29 1.3 2.9 0.999 0.999 0.2 0.2 0.899 0.1 1.7 0.2 1.1-0.599 5.09-2.9 6.49-2 6.29-3.4 1.8-0.499 4.1-4.1 0.999-1.1 3.2-3.1 2.3-2.1 0.699-0.2 0.799-0.3 0.999-0.1 0.3-0.1 0.999 0.699 0.4 0.799 0.699 1.4 2.1 1.8 0.3 0.4 2.9-0.299 1.7-1.1 0.599-1.4 0.2-1.9-1.5-2.5v-2.1l0.4-1.5 0.899-0.799 4-1.4 2.6-2.6 1.7-0.999 5.29-0.999 5.29 0.1 2 0.1 1.4-0.999 2.8-3.4 0.2-0.599 1.4-3.4 2.1-0.999h0.1l0.999 0.499 0.699 0.3 2-0.2 1.2-0.999 0.899-1.8 0.1-6.19 0.4-1.8 3.1-5.49 0.3-1.4-0.999-3.2-0.599-2 0.2-1.5 2.6-1.8 1.4-0.1h0.299l3.1 2.2 0.4 0.3 2.1-0.1 0.899-4.89 3.2 0.1 7.79-5.39 2.7-3.7 1.5-4.19 7.99-4.1 1.5-2.3v-0.4l-0.2-0.699 0.699-1.4 2.4-0.799 1.1-2.2 1.2-0.1 1.3-6.29v-0.3l1.3-6.59 2.1-2.2 4.29-1.9 2.1-1.7 1.8-0.799 3.3-0.599-0.499-3.7v-4.1l0.599-2.8 2.6-5.29-0.2-2.5 0.4-2.7 1.5-1.5 2-0.699 0.5-0.2 0.399-0.2h0.2l0.1-0.1 2.7 1.2 5.09 1.2h1.2l1.9-0.999h8.19l2.5-0.699 3-2.8 0.999-0.3 0.599 0.3 1.7 1.1 0.1-0.2 0.799-1.1 2.9 0.499 0.4 0.1 0.4 0.1 1.5 0.699 0.2-0.4 0.4-0.499 1.8-0.799 3.1-0.1 1.9 0.4 2.1 0.999 3.9 3.6 0.999 0.2 0.999-0.3 4 0.899 3.5-0.1 6.89-3.1 3.2 0.1 1.6-0.899 1.3-0.3 1.1 0.3 0.499-0.599 0.899-0.2 4.69 1.3 1.3-0.2 4.59 1.1 1.6-0.1 2.7 0.3 4.39-0.899 2.1 0.2 2.8-1.3 1.3-1.5 1.5-0.999 0.999-3.5 1.4-2.9 7.99-6.49 6.49-0.599 1.7-0.999 5.19-1.5h745l142 0.4 163 0.499-0.198-2.8-0.599-24.5-0.198-3.8 0.399-6.29-0.699-3.6 0.5-5.59-0.399-22.3-0.5-30.9-0.4-10.7-0.799-21.6 0.4-20.1v-2.2h-1.4e3z" fill="#d90000"/>
<path d="m466 363-1.2 1.2-1.2 2.8 0.1 1.8-0.2 1.5-0.4 2-3.5 6.79-1.2 6.69-3.9 11.7-1.3 7.29-1.3 5.29-4.79 18.4-0.699 1.3-3.7 3.4-0.799 2 2 5.39 3.6 4.89 1.5 1.3 1.1 0.899 2.5 0.999 2.9 2 2.2 0.4 1.5 1.2 3.9 5.99 5.79 5.19 2 4.39 3.3 9.49 0.799 2.5 2.1 2.3 3.3 7.29 0.799 3.8-0.499 12.7-0.799 3.3-2.8 7.09-0.2 0.2-2.9 3.3-4.1 5.79-3.2 1.8-3.3 4-3.9 9.49-0.2 1.5-4 8.59-0.399 0.799-2.9 9.19-4.39 13.9-2.5 4.79-5.49 5.49-0.5 1.4v1.8l-0.1 1.9 1.2 4.39 0.899 17-0.599 4-4.1 6.19-0.3 3.9 0.3 2.8 0.3 2.7 1.7 4.69 0.599 0.599h2.2l2.5-1.2 2.1-0.2 1.5 0.2 7.49 3.5 10.2 0.999 3.2 4.89 4.89 7.29 5.79 11.6 1.8 2.6 1.5 0.799 13.2 2.5 1.5 0.1 0.2 0.099 1.2-0.599 0.599-0.699 1.5-4.49-1.1-7.19 2.1-5.89 1.3-1.6 4.1-2.7 8.09-0.799 4.79 2.8 21.2 17 1.6 1.9 1.4 4.49 0.1 2.4 0.799 1.7h1.27e3l-1.5-8.89-2.5-14.6-0.599-4.89 0.198-2.8 1.1-2.8 11.2-11.5 0.3-1.7-5.09-5.29-1.5-3.4-0.4-1.1-1.5-10.1-6.09-0.5-1.8-1.4-0.899-1.4-0.999-3.1-0.4-4-1.1-11.1-0.899-1.4-0.799-0.299-2.2 0.399-0.699 2.1-0.099 2.1-1.4 1.9-3.6 0.1-0.999-0.799-5.39-6.79-3-4.49-13.3-19.9-5.79-8.59-0.099-7.39-0.4-20.3-1.6-12-6.59-3.9-0.5-1.6-1.2-3.2-1.4-2.1-2.2-1.8-5.49-2-4-5.49-1.3-0.4-1.4 0.2-5.69 3.1-8.09 0.1-2.1-1.7-0.499-0.399-2.3-3.4-1.7-5.49-0.999-1.1-2.7-1.5-6.59-2.6-2.9-1.7-2.5-15.5-0.198-0.399-1.4-5.19-0.099-0.2-3-14.8-0.799-5.09-0.198-5.59-1.8-9.59-0.198-0.4-1.3-2.6-0.3-0.599-0.799-0.999-0.699 0.2-0.399-0.799-0.198-0.499-1.8-8.19-1.2-1.1-11-3.9-3.5-0.1-1.5 1.1-1.3 0.3-1.4-2.9-1.6-1.4-0.699-0.4-4.99-2.8-1.5-1.7-3.2-7.19-0.699-16.7-1.5-7.09h-1.19e3zm-312 938-4.79 6.19-1.1 1.4-4.29 12.7-1.1 4.99-0.899 4.29-3.5 16.4-1.7 9.99-0.799 1.3-0.0997 2.6-3.3 13.5-3.2 9.49-1.8 1.2-2.1 0.1-4.59-1.7h-5.59l-1.7 1.6-3.5 5.99-1.4 2.1-5.69 2.3-0.3 3-0.799 3-0.599 3.4 0.499 5.19-0.799 2.7-1.6 0.4-2.7-0.1-1.5 3.3 0.899 6.89v3.1l0.799 2.9 2.3 4.59 2.2 4.1 0.699 2.9 0.198 1.1 0.899 1.3 2.5 1.8 0.099 2.9-3.3 3.2-2.1 5.59-1.3 14.3-1.5 7.79-3.4 17.5-4.49 23.3-3.7 19.4-4.2 21.5-0.899 4.79-4.49 27 5.49 2.8 0.699 1.7 0.201 1.2 0.699 3.8-0.5 2.1-1.3 2.6 0.899 3.4-0.499 4.19v0.1h1.4e3l0.099-2.3 1.2-21.6 0.999-3.2-0.198-4 1.6-7.99 1.1-5.39-0.198-1.8 0.999-3.3 2-14 1.3-8.39 1.6-6.09 1.7-0.899-1.6-3 1.8-8.19 0.599-5.09 1.7-14.8 0.899-2.1 2.7-16.6-0.198-3.3-9.19-35.4-2.3-8.79-0.599-6.09-4.89-15.3-0.198-0.599-0.799-1.9-0.599-0.3-2.4-9.69 3.4-5.79 3.2-4.39 2.4-3.5 1.4-1.9 2.3-3.3 2.9-3.1 0.999-0.999 0.499-2 1.1-1.6 12.3-17.4 3.5-4.99 4.39-5.79 4.49-4.29 0.899-0.899 4.29-8.09 7.79-8.29 4.1-4.29 2.4-2.8 1.4-2.4 1.1-1.7 1.2-4.59 0.198-4.1-1.4-5.89-0.399-0.899h-1.39e3z" fill="#fcdc04"/>
<path d="m1.32e3 988a289 292 0 0 1 -578 0 289 292 0 1 1 578 0z" fill="#fffdff"/>
<path d="m1e3 794a5.6 5.66 0 0 1 -11.2 0 5.6 5.66 0 1 1 11.2 0z" fill="#fff"/>
<path stroke="#fff" stroke-width="3.11" d="m1.05e3 1.08e3 0.989 37.3s12.8 2.33 18.8 0c5.93-2.33-0.33-26-19.8-37.3z" fill="#fff"/>
<path stroke="#fff" stroke-width="3.11" d="m935 819s38.2-9.32 42.8-7.99"/>
</g>
<path d="m315 264h75.3v8.27h-82.1v-1.49c0-3.74 3.04-6.78 6.78-6.78m110 25.4h-29.9v-3.54h29.9v3.54zm0 17.7h-29.9v-12.4h29.9v12.4zm-6.78 10.7h-23.1v-5.38h29.9v7.47c-1.93-1.32-4.27-2.09-6.78-2.09m-23.1 12.3h29.9v1.28h-29.9v-1.28zm0-6.98h23.1c1.71 0 3.27 0.641 4.46 1.69h-27.6v-1.69zm-80.6 0h75.3v8.27h-82.1v-1.5c0-3.74 3.04-6.77 6.78-6.77m75.3-37.2v31.9h-43.3v-1.57c0-6.21-5.05-11.3-11.3-11.3h-14.1c-6.21 0-11.3 5.05-11.3 11.3v2.49c-0.763 0.316-1.49 0.707-2.16 1.17v-34h82.1zm28.4-21.9c3.74 0 6.78 3.04 6.78 6.78v1.49h-29.9v-8.27h23.1zm6.78-13.4v10.2c-1.93-1.32-4.27-2.09-6.78-2.09h-23.1v-8.12h-5.3v8.12h-43.3v-1.57c0-6.21-5.05-11.3-11.3-11.3h-14.1c-6.21 0-11.3 5.05-11.3 11.3v2.49c-0.763 0.316-1.49 0.707-2.16 1.17v-20.7h-5.3v116h5.3v-11h82.1v11h5.3v-11h29.9v11h5.3v-105h-5.3z"/>
</g>
</svg>
