<?xml version="1.0" encoding="UTF-8" standalone="no"?>
<!-- Created with Inkscape (http://www.inkscape.org/) -->
<svg xmlns:rdf="http://www.w3.org/1999/02/22-rdf-syntax-ns#" xmlns="http://www.w3.org/2000/svg" height="600.25" width="800.92" version="1.1" xmlns:cc="http://creativecommons.org/ns#" xmlns:xlink="http://www.w3.org/1999/xlink" viewBox="0 0 800.92087 600.24999" xmlns:dc="http://purl.org/dc/elements/1.1/">
<defs>
<linearGradient id="b" y2="137.27" gradientUnits="userSpaceOnUse" x2="112.03" gradientTransform="matrix(.56254 0 0 .56797 342.29 378.75)" y1="192.35" x1="150.96">
<stop stop-color="#ffd43b" offset="0"/>
<stop stop-color="#ffe873" offset="1"/>
</linearGradient>
<linearGradient id="a" y2="114.4" gradientUnits="userSpaceOnUse" x2="135.67" gradientTransform="matrix(.56254 0 0 .56797 342.29 378.75)" y1="20.604" x1="26.649">
<stop stop-color="#5a9fd4" offset="0"/>
<stop stop-color="#306998" offset="1"/>
</linearGradient>
</defs>
<metadata>
<rdf:RDF>
<cc:Work rdf:about="">
<dc:format>image/svg+xml</dc:format>
<dc:type rdf:resource="http://purl.org/dc/dcmitype/StillImage"/>
<dc:title/>
</cc:Work>
</rdf:RDF>
</metadata>
<g transform="translate(-2981.8 538.6)">
<g transform="matrix(4.742 0 0 4.742 -12321 1234.5)">
<rect rx="2.1088" ry="2.1088" height="84.352" width="84.352" y="-363.32" x="3269.3" fill="#ffa500"/>
<path d="m3344.7-287.41c0.2337 0 0.4217-0.18813 0.4217-0.42173v-66.638c0-0.23365-0.188-0.42176-0.4217-0.42176h-66.638c-0.2336 0-0.4217 0.18811-0.4217 0.42176v66.638c0 0.2336 0.1881 0.42173 0.4217 0.42173h29.06v-12.653h-16.407c-0.2336 0-0.4217-0.188-0.4217-0.42173v-41.333c0-0.2336 0.1881-0.42174 0.4217-0.42174h41.333c0.2336 0 0.4217 0.18814 0.4217 0.42174v41.333c0 0.23373-0.1881 0.42173-0.4217 0.42173h-16.491v12.653z" stroke="#808080" stroke-width=".42176" fill="#fff"/>
<rect rx=".42176" ry=".42176" height="24.949" width="24.949" stroke="#808080" y="-333.58" x="3298.9" stroke-width=".42176" fill="#fff"/>
<g transform="matrix(.18971 0 0 .18971 3233.1 -405.95)">
<path d="m412.2 390.45c-4.5837 0.0213-8.961 0.41222-12.812 1.0938-11.346 2.0045-13.406 6.2001-13.406 13.938v10.219h26.812v3.4062h-26.812-10.062c-7.7924 0-14.616 4.6837-16.75 13.594-2.4618 10.213-2.571 16.586 0 27.25 1.9059 7.9378 6.4576 13.594 14.25 13.594h9.2188v-12.25c0-8.8499 7.6571-16.656 16.75-16.656h26.781c7.455 0 13.406-6.1382 13.406-13.625v-25.531c0-7.2663-6.13-12.725-13.406-13.938-4.606-0.76672-9.3851-1.115-13.969-1.0938zm-14.5 8.2188c2.7695 0 5.0312 2.2986 5.0312 5.125 0 2.8163-2.2617 5.0938-5.0312 5.0938-2.7795 0-5.0313-2.2774-5.0313-5.0938 0-2.8264 2.2518-5.125 5.0313-5.125z" fill="url(#a)"/>
<path d="m442.91 419.11v11.906c0 9.2308-7.8259 17-16.75 17h-26.781c-7.3359 0-13.406 6.2785-13.406 13.625v25.531c0 7.2663 6.3186 11.54 13.406 13.625 8.4873 2.4956 16.626 2.9466 26.781 0 6.7502-1.9544 13.406-5.8876 13.406-13.625v-10.219h-26.781v-3.4062h26.781 13.406c7.7925 0 10.696-5.4354 13.406-13.594 2.7993-8.3989 2.6802-16.476 0-27.25-1.9258-7.7574-5.6039-13.594-13.406-13.594h-10.062zm-15.062 64.656c2.7795 0 5.0313 2.2774 5.0313 5.0938 0 2.8264-2.2518 5.125-5.0313 5.125-2.7695 0-5.0312-2.2986-5.0312-5.125 0-2.8163 2.2617-5.0938 5.0312-5.0938z" fill="url(#b)"/>
</g>
</g>
<g transform="matrix(.096566 0 0 .096566 2865.9 -30.312)">
<path d="m2e3 952.36h-114.37v-685.63h-571.27v685.63h-114.37v-800h800v800z"/>
<path d="m2856.9 952.36h-148.95l-251.05-308.51-251.6 308.51h-148.4l325.8-400-325.8-400h148.4l251.6 308.51 251.05-308.51h148.95l-325.8 400 325.8 400z"/>
<path d="m3713.8 266.73h-343.1v685.63h-114.37v-685.63h-342.54v-114.37h800v114.37z"/>
<path d="m4342 609.82h-571.27v-114.37h571.27v114.37z"/>
<path d="m5085.6 495.46v-228.73h-571.27v228.73h571.27zm114.4 114.36h-685.63v342.54h-114.37v-800h800v457.46z"/>
<path d="m6056.9 952.36h-800v-114.37h685.63v-228.17h-685.63v-457.46h114.37v343.1h571.27v-343.1h114.37v800z"/>
<path d="m6913.8 266.73h-343.1v685.63h-114.37v-685.63h-342.54v-114.37h800v114.37z"/>
<path d="m7770.7 952.36h-114.37v-342.54h-571.27v342.54h-114.37v-800h114.37v343.1h571.27v-343.1h114.37v800z"/>
<path d="m8513.2 838v-571.27h-571.27v571.27h571.27zm114.37 114.37h-800v-800h800v800z"/>
<path d="m9484.5 952.36h-114.37v-685.63h-571.27v685.63h-114.37v-800h800v800z"/>
</g>
</g>
</svg>
