<svg width="512mm" height="512mm" version="1.1" viewBox="0 0 512 512" xmlns="http://www.w3.org/2000/svg"><g stroke-width=".66609" aria-label="Ey."><path d="m202.49 58.282v47.514h-142.32v89.034h112.13v45.96h-112.13v90.81h142.32v47.736h-202.49v-321.06z"/><path d="m331.93 441.95q-2.4423 5.7728-6.4389 8.6592-3.7745 3.1084-11.768 3.1084h-40.854l42.63-91.254-92.142-210.93h47.958q6.6609 0 10.213 3.1084t5.3287 7.105l48.625 118.12q2.4423 5.7728 4.2186 11.99t3.1084 12.434q1.7762-6.4389 3.7745-12.434 2.2203-5.9948 4.6626-12.212l45.738-117.9q1.7762-4.4406 5.7728-7.327 4.2186-2.8864 9.3253-2.8864h43.962z"/><path d="m444.72 349.14q0-6.8829 2.4423-13.1 2.6644-6.2168 7.105-10.657 4.6626-4.4406 10.879-7.105t13.322-2.6644q6.8829 0 13.1 2.6644t10.657 7.105 7.105 10.657 2.6644 13.1q0 7.105-2.6644 13.322-2.6644 5.9948-7.105 10.435t-10.657 6.8829q-6.2168 2.6644-13.1 2.6644-7.105 0-13.322-2.6644-6.2168-2.4423-10.879-6.8829-4.4406-4.4406-7.105-10.435-2.4423-6.2168-2.4423-13.322z"/></g></svg>
